<?xml version="1.0" encoding="utf-8"?>
<!-- Generator: Adobe Illustrator 22.0.1, SVG Export Plug-In . SVG Version: 6.00 Build 0)  -->
<svg version="1.1" id="Capa_1" xmlns="http://www.w3.org/2000/svg" xmlns:xlink="http://www.w3.org/1999/xlink" x="0px" y="0px"
	 viewBox="0 0 446.2 446.2" style="enable-background:new 0 0 446.2 446.2;" xml:space="preserve">
<style type="text/css">
	.st0{fill:#4CB45D;}
	.st1{fill:#A72532;}
</style>
<g>
	<path class="st0" d="M254.1,298.7c-9.6,11.7-22,19.5-36.6,23.5c-2.3,0.6-4.1,1.5-5.5,2.6c-13.6,4-27.9,6.3-42.6,6.7
		c-0.8-3.7-3.1-4.2-10-5.4c-12.9-2.1-25.5-5-37.3-10.7c-9.2-4.5-10.2-6.8-7.6-16.5c2-7.2,4-14.4,6.2-21.5c0.7-2.2,1.3-3.8,2.1-5.1
		c2.1-3.4,4.8-3.2,10.4-0.3c6.2,3.2,12.5,5.8,19.1,7.7c7.2,2.2,14.7,3.7,22.3,4.6c9.4,1.2,18.5,0.2,27.1-3.5
		c5.5-2.4,9.4-6.1,11.6-10.5c4.4-8.4,2.4-19.1-6.6-26.5c-4.6-3.8-9.9-6.6-15.4-9.1c-14.2-6.3-28.9-11-42.3-19
		c-21.7-13-35.5-30.8-33.9-57.2c1.8-29.8,18.7-48.5,46-58.4c11.3-4.1,11.4-3.9,11.4-15.7c0.1-4-0.1-8,0.1-12
		c0.2-8.9,1.7-10.4,10.6-10.7c2.7-0.1,5.5,0,8.2,0c18.9,0,18.9,0,18.9,18.8c0.1,13.3,0.1,13.4,13.3,15.5c10.2,1.6,19.9,4.6,29.3,8.8
		c5.2,2.3,7.1,5.9,5.5,11.4c-2.4,8.1-4.6,16.3-7.2,24.4c-2.5,7.6-4.9,8.8-12.2,5.2c-14.7-7.1-30.2-10.1-46.5-9.2
		c-4.2,0.2-8.4,0.8-12.4,2.6c-14,6.1-16.3,21.7-4.3,31.2c6.1,4.8,13,8.3,20.2,11.3c12.4,5.2,25,10.1,36.8,16.7
		c13.3,7.3,23.1,18,29.2,30.1C273.1,250.6,271.3,277.8,254.1,298.7z"/>
</g>
<g>
	<g id="search">
		<path class="st1" d="M318.8,280.5h-20.4l-7.6-7.7c25.5-28,40.8-66.3,40.8-107.1C331.5,74,257.5,0,165.8,0S0,74,0,165.8
			s74,165.8,165.8,165.8c1.2,0,2.4,0,3.6,0c14.7-0.3,29-2.6,42.6-6.7c22.9-6.8,43.8-18.6,60.9-34.1l7.7,7.6v20.4L408,446.2
			l38.2-38.2L318.8,280.5z M262.1,228.4c-11.8,18.3-28.7,32.9-48.8,41.9c-14.5,6.5-30.5,10.2-47.5,10.2c-4.6,0-9.1-0.3-13.5-0.8
			c-10.3-1.2-20.2-3.7-29.5-7.4C80.5,255.4,51,214.3,51,165.8C51,102,102,51,165.8,51s114.8,51,114.8,114.8
			C280.5,188.9,273.8,210.5,262.1,228.4z"/>
	</g>
</g>
</svg>
