<?xml version="1.0" encoding="utf-8"?>
<!-- Generator: Adobe Illustrator 22.0.1, SVG Export Plug-In . SVG Version: 6.00 Build 0)  -->
<svg version="1.1" id="Capa_1" xmlns="http://www.w3.org/2000/svg" xmlns:xlink="http://www.w3.org/1999/xlink" x="0px" y="0px"
	 viewBox="0 0 284.9 108.6" style="enable-background:new 0 0 284.9 108.6;" xml:space="preserve">
<style type="text/css">
	.st0{fill:#FF0000;}
</style>
<g>
	<path class="st0" d="M145.4,51.1l109.3,54.7c0,0,4.1,2.8,6.6,2.8c2.5,0,4.7-1,6.6-2.8l14.3-14.3c1.9-1.9,2.8-4.1,2.8-6.6
		c0-2.5-0.9-4.7-2.8-6.6L151.9,2.9C150,1,147.8,0,145.4,0s-4.7,1-6.6,2.9L2.9,78.4C0.9,80.3,0,82.5,0,84.9c0,2.5,1,4.7,2.9,6.6
		l14.3,14.3c1.9,1.9,4.1,2.9,6.6,2.9"/>
</g>
</svg>
