<?xml version="1.0" encoding="utf-8"?>
<!-- Generator: Adobe Illustrator 22.0.1, SVG Export Plug-In . SVG Version: 6.00 Build 0)  -->
<svg version="1.1" id="Layer_1" xmlns="http://www.w3.org/2000/svg" xmlns:xlink="http://www.w3.org/1999/xlink" x="0px" y="0px"
	 viewBox="0 0 512 512" style="enable-background:new 0 0 512 512;" xml:space="preserve">
<style type="text/css">
	.st0{fill:#C2B8B9;}
	.st1{fill:#D6CED1;}
	.st2{fill:#ECE7EA;}
	.st3{fill:#A72532;}
	.st4{fill:#FFFFFF;}
	.st5{fill:#E1DFE0;}
</style>
<polygon class="st0" points="32.2,478.4 32.2,512 479.8,512 479.8,478.4 256,444.9 "/>
<polygon class="st1" points="32.2,444.9 32.2,478.4 479.8,478.4 479.8,366.5 "/>
<polygon class="st2" points="479.8,153.9 479.8,366.5 423.9,388.9 401.5,444.9 32.2,444.9 32.2,153.9 256,120.3 "/>
<rect x="32.2" y="30.8" class="st3" width="447.6" height="123.1"/>
<g>
	<path class="st4" d="M316,367.6c-4.6,0-8.4-3.8-8.4-8.4v-99.5l-9.6,9.6c-3.3,3.3-8.6,3.3-11.9,0c-3.3-3.3-3.3-8.6,0-11.9l23.9-23.9
		c2.4-2.4,6-3.1,9.1-1.8c3.1,1.3,5.2,4.4,5.2,7.8v119.7C324.4,363.9,320.6,367.6,316,367.6z"/>
	<path class="st4" d="M227.2,367.6c-21.8,0-39.6-17.8-39.6-39.6c0-4.6,3.8-8.4,8.4-8.4s8.4,3.8,8.4,8.4c0,12.6,10.2,22.8,22.8,22.8
		c12.6,0,22.8-10.2,22.8-22.8c0-9.1-5.4-17.3-13.8-21c-3.1-1.3-5.1-4.4-5.1-7.7s2-6.4,5.1-7.7c8.4-3.6,13.8-11.8,13.8-21
		c0-12.6-10.2-22.8-22.8-22.8c-12.6,0-22.8,10.2-22.8,22.8c0,4.6-3.8,8.4-8.4,8.4s-8.4-3.8-8.4-8.4c0-21.8,17.8-39.6,39.6-39.6
		c21.8,0,39.6,17.8,39.6,39.6c0,11-4.6,21.3-12.3,28.7c7.7,7.3,12.3,17.6,12.3,28.7C266.8,349.9,249.1,367.6,227.2,367.6z"/>
</g>
<g>
	<path class="st5" d="M390.3,100.7c-4.6,0-8.4-3.8-8.4-8.4V8.4c0-4.6,3.8-8.4,8.4-8.4s8.4,3.8,8.4,8.4v83.9
		C398.7,97,394.9,100.7,390.3,100.7z"/>
	<path class="st5" d="M121.7,100.7c-4.6,0-8.4-3.8-8.4-8.4V8.4c0-4.6,3.8-8.4,8.4-8.4c4.6,0,8.4,3.8,8.4,8.4v83.9
		C130.1,97,126.3,100.7,121.7,100.7z"/>
</g>
<polygon class="st4" points="479.8,366.5 401.5,444.9 401.5,366.5 "/>
</svg>
