<svg xmlns="http://www.w3.org/2000/svg" width="500px" height="500px" viewBox="0 0 500 500"><defs><style>.cls-1{isolation:isolate;}.cls-2{fill:#dbd2ca;}.cls-3{fill:#0071ce;mix-blend-mode:multiply;}</style></defs><title>SVG Icon Masters-A_v4</title><g id="main_icons" class="cls-1"><path class="cls-2" d="M285.163 205.982c6.362 5.028 55.862 20.429 67.326 28.977 11.456 8.528 18.311 92.093 18.311 92.093l-122.949.77-.259.007.206-.007-.272.007-122.956.771s5.818-83.644 17.155-92.311c11.337-8.694 60.651-24.72 66.947-29.828l12.652 37.014 26.276-20.385 24.932 20.064 12.633-37.173"/><path class="cls-2" d="M188.1 131.244c-.239-37.252 24.607-67.6 55.51-67.8 30.876-.2 56.128 29.834 56.36 67.093s-24.627 67.611-55.517 67.8-56.117-29.837-56.353-67.093z"/><path class="cls-3" d="M292.289 79.274l-45.689 16.226a6.61 6.61 0 0 1-4.41.02l-45.851-15.649a1.7 1.7 0 0 0-1.514.226 1.671 1.671 0 0 0-.691 1.368l.173 27.118a1.619 1.619 0 0 0 .518 1.2l1.029.976c11.968 11.383 29.747 17.833 48.789 17.713 19.021-.12 36.7-6.787 48.523-18.3l1.016-.99a1.668 1.668 0 0 0 .5-1.2l-.166-27.158a1.643 1.643 0 0 0-.7-1.341 1.7 1.7 0 0 0-1.521-.22m-128.879-17.496a2.686 2.686 0 0 1-.08-5.027l78.37-29.854a2.776 2.776 0 0 1 1.84-.013l81.427 28.837a2.671 2.671 0 0 1 .007 5.034l-79.713 28.656a2.7 2.7 0 0 1-1.773.013l-80.078-27.646"/><path class="cls-2" d="M181.063 67.1l-.08.027-2.225.824a3.152 3.152 0 0 0-2 2.935l.242 20.263a5.851 5.851 0 0 0-2.822 5.014 5.566 5.566 0 0 0 .411 2.059l-2.006 16.564a2.183 2.183 0 0 0 .532 1.74 2.149 2.149 0 0 0 1.66.737l10.713-.067a2.157 2.157 0 0 0 1.647-.764 2.2 2.2 0 0 0 .524-1.727l-2.219-16.549a5.709 5.709 0 0 0-2.272-6.907l-.278-19.149 6.064-2.225 50.429-18.523.047-4.769z"/></g></svg>